<svg width="40" height="40" viewBox="0 0 40 40" fill="none" xmlns="http://www.w3.org/2000/svg">
<path d="M34.1422 5.85781C30.3646 2.08039 25.3422 0 20 0C14.6578 0 9.63539 2.08039 5.85781 5.85781C2.08039 9.63539 0 14.6578 0 20C0 25.3422 2.08039 30.3646 5.85781 34.1422C9.63539 37.9196 14.6578 40 20 40C25.3422 40 30.3646 37.9196 34.1422 34.1422C37.9196 30.3646 40 25.3422 40 20C40 14.6578 37.9196 9.63539 34.1422 5.85781ZM18.8281 6.71875C18.8281 6.07156 19.3528 5.54688 20 5.54688C20.6472 5.54688 21.1719 6.07156 21.1719 6.71875V9.0625C21.1719 9.70969 20.6472 10.2344 20 10.2344C19.3528 10.2344 18.8281 9.70969 18.8281 9.0625V6.71875ZM12.7734 7.48328C13.3339 7.15969 14.0506 7.35172 14.3742 7.91219L15.5461 9.94187C15.8697 10.5023 15.6777 11.2191 15.1172 11.5427C14.5567 11.8663 13.84 11.6742 13.5164 11.1137L12.3445 9.08406C12.0209 8.52359 12.213 7.80688 12.7734 7.48328ZM5.54688 20C5.54688 19.3528 6.07156 18.8281 6.71875 18.8281H9.0625C9.70969 18.8281 10.2344 19.3528 10.2344 20C10.2344 20.6472 9.70969 21.1719 9.0625 21.1719H6.71875C6.07156 21.1719 5.54688 20.6472 5.54688 20ZM11.1138 26.4837L9.08406 27.6555C8.52359 27.9791 7.80688 27.7871 7.48328 27.2266C7.15969 26.6662 7.35172 25.9495 7.91219 25.6259L9.94195 24.454C10.5024 24.1304 11.2191 24.3224 11.5427 24.8829C11.8663 25.4434 11.6743 26.1601 11.1138 26.4837ZM11.5427 15.1172C11.2191 15.6777 10.5024 15.8698 9.94195 15.5462L7.91219 14.3743C7.35172 14.0507 7.15961 13.334 7.48328 12.7735C7.80688 12.213 8.52359 12.021 9.08406 12.3446L11.1138 13.5165C11.6743 13.8399 11.8663 14.5566 11.5427 15.1172ZM15.5461 30.0581L14.3742 32.0878C14.0506 32.6483 13.3339 32.8403 12.7734 32.5167C12.213 32.1931 12.0209 31.4764 12.3445 30.9159L13.5164 28.8862C13.84 28.3258 14.5567 28.1337 15.1172 28.4573C15.6777 28.7809 15.8697 29.4976 15.5461 30.0581ZM21.1719 33.2812C21.1719 33.9284 20.6472 34.4531 20 34.4531C19.3528 34.4531 18.8281 33.9284 18.8281 33.2812V30.9375C18.8281 30.2903 19.3528 29.7656 20 29.7656C20.6472 29.7656 21.1719 30.2903 21.1719 30.9375V33.2812ZM27.0312 27.4219C25.7599 27.4219 24.5623 27.1004 23.5152 26.5347C22.4683 27.1003 21.2711 27.4219 20 27.4219C15.9076 27.4219 12.5781 24.0924 12.5781 20C12.5781 15.9076 15.9076 12.5781 20 12.5781C21.2709 12.5781 22.4673 12.9005 23.5141 13.4659C24.5615 12.8998 25.7595 12.5781 27.0312 12.5781C31.1237 12.5781 34.4531 15.9076 34.4531 20C34.4531 24.0924 31.1237 27.4219 27.0312 27.4219Z" fill="white"/>
<path d="M20 14.9219C17.1999 14.9219 14.9219 17.1999 14.9219 20C14.9219 22.8001 17.1999 25.0781 20 25.0781C20.4985 25.0781 20.9801 25.005 21.4355 24.8702C20.2987 23.5659 19.6094 21.862 19.6094 20C19.6094 18.1377 20.299 16.4336 21.4361 15.1291C20.9805 14.9945 20.4987 14.9219 20 14.9219Z" fill="white"/>
<path d="M27.0312 25.0781C29.8358 25.0781 32.1094 22.8046 32.1094 20C32.1094 17.1954 29.8358 14.9219 27.0312 14.9219C24.2267 14.9219 21.9531 17.1954 21.9531 20C21.9531 22.8046 24.2267 25.0781 27.0312 25.0781Z" fill="white"/>
</svg>
