<svg width="40" height="40" viewBox="0 0 40 40" fill="none" xmlns="http://www.w3.org/2000/svg">
<path d="M34.1422 5.85781C30.3646 2.08039 25.3422 0 20 0C14.6578 0 9.63539 2.08039 5.85781 5.85781C2.08039 9.63539 0 14.6578 0 20C0 25.3422 2.08039 30.3646 5.85781 34.1422C9.63539 37.9196 14.6578 40 20 40C25.3422 40 30.3646 37.9196 34.1422 34.1422C37.9196 30.3646 40 25.3422 40 20C40 14.6578 37.9196 9.63539 34.1422 5.85781ZM20 37.6562C10.2643 37.6562 2.34375 29.7357 2.34375 20C2.34375 10.2643 10.2643 2.34375 20 2.34375C29.7357 2.34375 37.6562 10.2643 37.6562 20C37.6562 29.7357 29.7357 37.6562 20 37.6562Z" fill="black"/>
<path d="M10.2344 20C10.2344 19.3528 9.70969 18.8281 9.0625 18.8281H6.71875C6.07156 18.8281 5.54688 19.3528 5.54688 20C5.54688 20.6472 6.07156 21.1719 6.71875 21.1719H9.0625C9.70969 21.1719 10.2344 20.6472 10.2344 20Z" fill="black"/>
<path d="M11.5409 24.883C11.2173 24.3225 10.5006 24.1305 9.94011 24.4541L7.91035 25.6259C7.34988 25.9495 7.15778 26.6663 7.48145 27.2267C7.80504 27.7872 8.52176 27.9793 9.08223 27.6556L11.112 26.4838C11.6725 26.1602 11.8645 25.4435 11.5409 24.883Z" fill="black"/>
<path d="M15.1174 28.457C14.5569 28.1334 13.8402 28.3254 13.5166 28.8859L12.3447 30.9156C12.0211 31.4761 12.2131 32.1928 12.7736 32.5164C13.3341 32.84 14.0508 32.6479 14.3744 32.0875L15.5463 30.0578C15.8699 29.4973 15.6778 28.7807 15.1174 28.457Z" fill="black"/>
<path d="M20 29.7656C19.3527 29.7656 18.8281 30.2903 18.8281 30.9375V33.2812C18.8281 33.9284 19.3528 34.4531 20 34.4531C20.6472 34.4531 21.1719 33.9284 21.1719 33.2812V30.9375C21.1719 30.2903 20.6472 29.7656 20 29.7656Z" fill="black"/>
<path d="M20 10.2344C20.6473 10.2344 21.1719 9.70969 21.1719 9.0625V6.71875C21.1719 6.07156 20.6472 5.54688 20 5.54688C19.3528 5.54688 18.8281 6.07156 18.8281 6.71875V9.0625C18.8281 9.70969 19.3528 10.2344 20 10.2344Z" fill="black"/>
<path d="M13.5166 11.1138C13.8402 11.6743 14.5569 11.8663 15.1174 11.5427C15.6778 11.2191 15.8699 10.5024 15.5463 9.94196L14.3744 7.91227C14.0508 7.3518 13.3341 7.15977 12.7736 7.48337C12.2131 7.80696 12.0211 8.52368 12.3447 9.08415L13.5166 11.1138Z" fill="black"/>
<path d="M11.112 13.5166L9.0822 12.3447C8.52173 12.0211 7.80501 12.2131 7.48141 12.7736C7.15782 13.3341 7.34985 14.0508 7.91032 14.3744L9.94009 15.5463C10.5006 15.8698 11.2173 15.6778 11.5409 15.1173C11.8645 14.5569 11.6724 13.8402 11.112 13.5166Z" fill="black"/>
<path d="M27.0312 12.5781C25.7604 12.5781 24.5632 12.8994 23.5164 13.4647C22.4392 12.8833 21.238 12.5781 20 12.5781C15.9076 12.5781 12.5781 15.9076 12.5781 20C12.5781 24.0924 15.9076 27.4219 20 27.4219C21.238 27.4219 22.4392 27.1167 23.5164 26.5353C24.5632 27.1006 25.7604 27.4219 27.0312 27.4219C31.1237 27.4219 34.4531 24.0924 34.4531 20C34.4531 15.9076 31.1237 12.5781 27.0312 12.5781ZM21.4363 24.8711C20.9737 25.0074 20.4912 25.0781 20 25.0781C17.1999 25.0781 14.9219 22.8001 14.9219 20C14.9219 17.1999 17.1999 14.9219 20 14.9219C20.4912 14.9219 20.9737 14.9926 21.4363 15.1289C20.2991 16.4334 19.6094 18.1376 19.6094 20C19.6094 21.8624 20.2991 23.5666 21.4363 24.8711ZM27.0312 25.0781C24.2312 25.0781 21.9531 22.8001 21.9531 20C21.9531 17.1999 24.2312 14.9219 27.0312 14.9219C29.8313 14.9219 32.1094 17.1999 32.1094 20C32.1094 22.8001 29.8313 25.0781 27.0312 25.0781Z" fill="black"/>
</svg>
