<?xml version="1.0" encoding="utf-8"?>
<!-- Generator: Adobe Illustrator 25.2.3, SVG Export Plug-In . SVG Version: 6.00 Build 0)  -->
<svg version="1.1" id="svg64" xmlns="http://www.w3.org/2000/svg" xmlns:xlink="http://www.w3.org/1999/xlink" x="0px" y="0px"
	 viewBox="0 0 67.9 66.9" style="enable-background:new 0 0 67.9 66.9;" xml:space="preserve">
<style type="text/css">
	.st1{fill:#C121DE;}
</style>
<path id="path9" d="M20.2,31.2h2.2l5.6,8.5h0v-8.5h2.4v12.6h-2.2l-5.6-8.5h0v8.5h-2.4L20.2,31.2z M33.2,31.2h9.1v2.1h-6.7v3.2h6.1v2
	h-6.1v3.2h6.7v2.1h-9.1L33.2,31.2z M44.4,41.7v-8.5l2.1-2.1h6.5l2.1,2.1v8.5l-2.1,2.1h-6.5L44.4,41.7z M51.6,41.7l0.9-0.9v-6.6
	l-0.9-0.9h-3.9l-0.9,0.9v6.6l0.9,0.9H51.6z M57.6,31.2h2.2l5.6,8.5h0v-8.5h2.4v12.6h-2.2L60,35.3h0v8.5h-2.4V31.2z M19.9,64.8V63
	h2.4v1.1l0.6,0.6h3.7l0.6-0.6V62l-0.6-0.6h-4.8l-1.9-1.9v-3.3l1.9-1.9h5.7l1.9,1.9v1.8h-2.4v-1.1l-0.6-0.6h-3.6l-0.6,0.6v1.9
	l0.6,0.6h4.8l1.9,1.9v3.5l-2,2h-5.8L19.9,64.8z M30.7,54.2h2.5l1.5,8.9h0.1l2.5-8.9h1.8l2.4,8.9h0.1l1.5-8.9h2.5L43,66.8h-2.3
	l-2.5-8.9h-0.1l-2.6,8.9h-2.3L30.7,54.2z M50,54.2h2.2l4.6,12.6h-2.5l-1-2.8h-4.4l-1,2.8h-2.5L50,54.2z M52.8,62l-1.7-4.8h0L49.5,62
	H52.8z M58.1,54.2H66l1.9,1.9v4.4l-1.9,2h-5.4v4.3h-2.4L58.1,54.2z M64.9,60.4l0.6-0.6v-3l-0.6-0.6h-4.3v4.2H64.9z"/>
<g>
	<g id="g17" transform="translate(-76.494024,-35.378486)">
		<path id="path11" class="st1" d="M76.5,36.4l1-1l6.4,4.7L84,40l0-0.5c0-1.5,1.2-2.7,2.7-2.7h0.7V40c1.8,0.5,3.4,1.6,4.6,3.1
			c1.3,1.7,2.1,3.7,2.1,5.9v9.4H80.4v-3c0-2.1,1.6-3.9,3.6-4.2v-3c-0.2-0.1-0.3-0.2-0.5-0.3l-1.3,1.3l0,0c-0.3,0.3-0.7,0.4-1.1,0.4
			c-0.4,0-0.8-0.2-1.1-0.4l-2.6-2.6l3.9-3.9L76.5,36.4z M80.3,39.2l1.9,2.6l0.7-0.7L80.3,39.2z M79.3,46.6l1.7,1.7l0,0
			c0,0,0.1,0,0.1,0c0.1,0,0.1,0,0.1,0l2.5-2.5l0.4,0.7c0,0,0.1,0.1,0.1,0.1c0,0,0,0,0,0c0,0,0.1,0,0.1,0.1c0,0,0,0,0,0
			c0.2,0.1,0.4,0.2,0.6,0.3l0,0c0.2,0,0.4,0.1,0.6,0.1c1.2,0,2.1-0.9,2.1-2.1s-0.9-2.1-2.1-2.1v-1.4c1.9,0,3.5,1.6,3.5,3.5
			s-1.6,3.5-3.5,3.5c0,0-0.1,0-0.1,0v4l-0.7,0c-1.6,0-2.9,1.3-2.9,2.9V57h10.9v-8c0-1.8-0.6-3.6-1.8-5c-1.1-1.4-2.7-2.4-4.4-2.8
			L86,41.1v-2.7c-0.4,0.2-0.6,0.7-0.6,1.1l0,1.1l-0.9,0.9v0l-1.8,1.8L79.3,46.6z"/>
		<g id="g15">
			<path id="path13" class="st1" d="M84.1,44.4l1,0.2l-0.4-1L84.1,44.4z"/>
		</g>
	</g>
</g>
</svg>
