<svg width="24" height="24" viewBox="0 0 24 24" fill="none" xmlns="http://www.w3.org/2000/svg">
<path d="M21.6168 10.0715L21.6168 10.0715L21.6237 10.066C22.1001 9.68489 22.2053 9.02234 21.938 8.51748L21.9315 8.50524L21.9246 8.49326L20.007 5.17345C19.6854 4.6024 19.035 4.44853 18.53 4.61688L18.5084 4.62405L18.4874 4.63252L16.4833 5.43818C16.1533 5.2117 15.8091 5.0104 15.4435 4.83551L15.1417 2.70331L15.1418 2.7033L15.1408 2.69713C15.0476 2.07565 14.5157 1.65039 13.9191 1.65039H10.0791C9.45922 1.65039 8.95921 2.09863 8.86943 2.69713L8.8694 2.69713L8.86853 2.70331L8.5667 4.8362C8.19991 5.01263 7.85381 5.21642 7.52833 5.43873L5.52288 4.63252L5.5229 4.63247L5.51496 4.62939C4.95606 4.41204 4.30902 4.63077 4.00324 5.1735L2.08569 8.49326L2.0856 8.49321L2.07951 8.50416C1.79059 9.02421 1.89336 9.69105 2.39802 10.075L4.08307 11.3912C4.06235 11.5891 4.04913 11.7949 4.04913 12.0004C4.04913 12.1995 4.05784 12.4038 4.07554 12.6061L2.38146 13.9293L2.38143 13.9293L2.37461 13.9347C1.89817 14.3159 1.79301 14.9784 2.06029 15.4833L2.06676 15.4955L2.07369 15.5075L3.99119 18.8272C4.31279 19.3984 4.9632 19.5523 5.4683 19.3839L5.48983 19.3767L5.51088 19.3683L7.51496 18.5626C7.84499 18.7891 8.18921 18.9904 8.5548 19.1653L8.85653 21.2975L8.85952 21.3186L8.86369 21.3395C8.97617 21.9019 9.45365 22.3504 10.0791 22.3504H13.9191C14.502 22.3504 15.0569 21.934 15.1314 21.2856L15.4316 19.1646C15.7984 18.9882 16.1444 18.7844 16.4699 18.5621L18.4754 19.3683L18.4754 19.3683L18.4833 19.3714C19.0422 19.5887 19.6892 19.37 19.995 18.8273L21.9126 15.5075L21.9127 15.5076L21.9187 15.4966C22.2073 14.9773 22.1052 14.3116 21.6023 13.9274L19.9256 12.602C19.9404 12.4078 19.9491 12.2071 19.9491 12.0004C19.9491 11.7953 19.9405 11.5933 19.923 11.3944L21.6168 10.0715ZM11.9991 14.8504C10.4333 14.8504 9.14913 13.5662 9.14913 12.0004C9.14913 10.4346 10.4333 9.15039 11.9991 9.15039C13.5649 9.15039 14.8491 10.4346 14.8491 12.0004C14.8491 13.5662 13.5649 14.8504 11.9991 14.8504Z" stroke="#8286AB" stroke-width="1.5"/>
</svg>
